<svg width="12em" xmlns="http://www.w3.org/2000/svg" role="presentation" viewBox="0 0 896.71 133.24" fill="currentColor"><path d="M30.52 40.79h-.01l-.01.02.02-.02Zm55.57-1.03c-.39-.37-.82-.69-1.28-.96-2.66-1.54-6.08-.67-7.64 1.96-.06.1-.12.21-.17.31a31.81 31.81 0 0 1-7.8 9.8c.49-2.75.74-5.54.74-8.33.02-17.29-9.36-33.26-24.56-41.82-2.68-1.5-6.09-.57-7.61 2.08-.42.73-.66 1.53-.71 2.37-.63 10.57-5.62 20.42-13.79 27.26l-1.29 1.03a47.118 47.118 0 0 0-11.09 10.27c-17.24 21.44-13.61 52.61 8.08 69.62 3.74 2.93 7.88 5.32 12.3 7.1 2.85 1.15 6.11-.2 7.27-3.02.27-.66.41-1.37.41-2.09 0-.59-.1-1.17-.28-1.72a38 38 0 0 1-1.06-14.24c5.28 9.84 13.76 17.65 24.07 22.16 1.26.56 2.68.63 3.99.21 26.39-8.42 40.88-36.38 32.36-62.46a49.517 49.517 0 0 0-11.96-19.53Zm-21.8 70.78c-9.84-4.93-17.1-13.76-19.97-24.28a47.93 47.93 0 0 1-1-5.32 5.544 5.544 0 0 0-4.46-4.66c-.35-.07-.71-.1-1.07-.1-2 0-3.84 1.05-4.84 2.76a48.969 48.969 0 0 0-6.73 26.02c-17-13.06-20.07-37.27-6.85-54.07.1-.12.19-.24.29-.36 2.44-3.13 5.39-5.85 8.72-8.04.14-.09.28-.19.41-.3l1.71-1.39c7.95-6.65 13.61-15.58 16.18-25.55 12.51 11.42 15.68 29.73 7.74 44.61-1.43 2.7-.37 6.03 2.37 7.44 1.31.67 2.83.81 4.24.38a43.898 43.898 0 0 0 21.56-14.82c12.1 17.66 7.42 41.67-10.45 53.63-2.45 1.64-5.09 3-7.85 4.06ZM178.4 35.3c0 12.78-9.43 22.17-21.01 22.17-5.57 0-10-1.84-12.36-6.07l-1.07 5.44h-12.93l10.58-52.4h13.58l-3.43 17.02c2.79-2.26 6.22-3.53 10.29-3.53 8.36 0 16.36 6.28 16.36 17.37Zm-13.72.71c0-4.45-2.72-7.34-7.36-7.34-5.36 0-9.22 4.31-9.22 10.73 0 4.45 2.72 7.27 7.36 7.27 5.36 0 9.22-4.31 9.22-10.66ZM191.26 4.44h13.58l-10.58 52.4h-13.58l10.58-52.4ZM204.27 40.03c0-12.64 9.93-22.1 23.8-22.1 12.36 0 20.29 6.85 20.29 17.37 0 12.71-9.93 22.17-23.79 22.17-12.36 0-20.29-6.92-20.29-17.44Zm30.3-4.02c0-4.45-2.64-7.34-7.29-7.34-5.43 0-9.22 4.31-9.22 10.73 0 4.45 2.64 7.27 7.29 7.27 5.43 0 9.22-4.31 9.22-10.66ZM299.95 18.57l-6.29 31.21c-3.07 15.18-11.93 21.4-25.58 21.4-7.79 0-14.15-1.69-18.86-4.94l6.07-9.32c3.07 2.4 8.07 3.95 13.15 3.95 7 0 10.08-3.11 11.15-8.62l.29-1.27c-2.86 2.54-6.5 3.88-10.79 3.88-9.15 0-16.94-6.07-16.94-16.31 0-11.51 9.15-20.62 21.22-20.62 5.57 0 10.29 1.84 12.43 6.71l1.21-6.07h12.93Zm-17.72 16.38c0-3.74-2.64-6.28-7.22-6.28-5.43 0-9.22 3.74-9.22 9.25 0 3.74 2.72 6.21 7.29 6.21 5.36 0 9.15-3.67 9.15-9.18ZM299.95 50.13c0-5.16 3.93-8.54 8.72-8.54s7.65 2.97 7.65 7.34c0 5.16-4 8.54-8.65 8.54s-7.72-3.11-7.72-7.34ZM372.69 4.44l-10.58 52.4h-12.86l.79-3.74c-2.93 2.75-6.72 4.38-11.22 4.38-8.36 0-16.36-6.29-16.36-17.44 0-12.71 9.5-22.1 21.08-22.1 5.15 0 9.36 1.55 11.79 5.08l3.79-18.57h13.58Zm-19.94 31.57c0-4.45-2.64-7.34-7.29-7.34-5.43 0-9.22 4.31-9.22 10.73 0 4.45 2.64 7.27 7.29 7.27 5.43 0 9.22-4.31 9.22-10.66ZM419.5 18.57l-7.72 38.27h-12.86l.79-3.6c-3 2.75-6.72 4.24-11.22 4.24-8.36 0-16.36-6.29-16.36-17.44 0-12.71 9.43-22.1 21.01-22.1 5.22 0 9.43 1.55 11.86 5.23l.93-4.59h13.58Zm-17.08 17.44c0-4.45-2.71-7.34-7.36-7.34-5.36 0-9.22 4.31-9.22 10.73 0 4.45 2.72 7.27 7.36 7.27 5.43 0 9.22-4.31 9.22-10.66ZM491.32 30.92c0 1.48-.14 3.04-.5 4.73l-4.22 21.19h-13.58l4-19.77c.21-.99.29-1.84.29-2.68 0-3.39-1.79-5.08-4.86-5.08-4.07 0-7 2.4-8.22 8.26l-3.93 19.28h-13.58l4.07-19.77c.21-.92.29-1.84.29-2.61 0-3.39-1.79-5.16-4.86-5.16-4.14 0-7.07 2.47-8.29 8.4l-3.86 19.14h-13.58l7.72-38.27h12.86l-.79 3.88c3.29-3.11 7.36-4.52 11.58-4.52 5 0 9.43 2.05 11.65 6.21 3.57-4.03 8.43-6.21 14.22-6.21 7.93 0 13.58 4.45 13.58 12.99ZM544.41 18.57l-7.72 38.27h-12.86l.79-3.6c-3 2.75-6.72 4.24-11.22 4.24-8.36 0-16.36-6.29-16.36-17.44 0-12.71 9.43-22.1 21.01-22.1 5.22 0 9.43 1.55 11.86 5.23l.93-4.59h13.58Zm-17.08 17.44c0-4.45-2.71-7.34-7.36-7.34-5.36 0-9.22 4.31-9.22 10.73 0 4.45 2.72 7.27 7.36 7.27 5.43 0 9.22-4.31 9.22-10.66ZM563.42 42.58c-.07.49-.14.92-.14 1.27 0 2.12 1.21 3.25 3.57 3.25 1.43 0 2.71-.42 4.07-1.13l1.71 9.25c-2.86 1.62-6.5 2.26-10.08 2.26-7.93 0-13.08-4.1-13.08-11.23 0-1.13.07-2.33.36-3.6l2.57-12.64h-5.72l2.07-10.03h5.65l2-9.96h13.58l-2 9.96h8.79l-2 10.03h-8.79l-2.57 12.57ZM577.43 40.03c0-12.64 9.93-22.1 23.79-22.1 12.36 0 20.29 6.85 20.29 17.37 0 12.71-9.93 22.17-23.79 22.17-12.36 0-20.29-6.92-20.29-17.44Zm30.3-4.02c0-4.45-2.64-7.34-7.29-7.34-5.43 0-9.22 4.31-9.22 10.73 0 4.45 2.64 7.27 7.29 7.27 5.43 0 9.22-4.31 9.22-10.66ZM622.52 50.13c0-5.16 3.93-8.54 8.72-8.54s7.65 2.97 7.65 7.34c0 5.16-4 8.54-8.65 8.54s-7.72-3.11-7.72-7.34ZM695.27 4.44l-10.58 52.4h-12.86l.79-3.74c-2.93 2.75-6.72 4.38-11.22 4.38-8.36 0-16.36-6.29-16.36-17.44 0-12.71 9.5-22.1 21.08-22.1 5.14 0 9.36 1.55 11.79 5.08l3.79-18.57h13.58Zm-19.94 31.57c0-4.45-2.64-7.34-7.29-7.34-5.43 0-9.22 4.31-9.22 10.73 0 4.45 2.64 7.27 7.29 7.27 5.43 0 9.22-4.31 9.22-10.66ZM736.43 41.02h-28.44c.5 4.24 3.43 6.21 8.79 6.21 3.43 0 6.79-1.06 9.36-3.11l5.65 8.4c-4.86 3.53-10.65 4.94-16.51 4.94-12.43 0-20.58-6.78-20.58-17.44 0-12.71 9.5-22.1 23.44-22.1 11.79 0 19.08 6.78 19.08 16.81 0 2.26-.36 4.38-.79 6.29Zm-27.65-7.06h15.93c.07-4.1-2.86-6.5-7.22-6.5-4.57 0-7.43 2.68-8.72 6.5ZM737.36 53.73l4.93-9.39c3.57 2.26 8.86 3.53 13.43 3.53s6.22-1.06 6.22-2.75c0-4.38-20.08-.35-20.08-13.28 0-9.18 8.93-13.91 20.65-13.91 5.5 0 10.93 1.13 14.72 3.04l-4.79 9.39c-3.79-2.26-8.08-2.9-11.5-2.9-4.43 0-6.22 1.34-6.22 2.9 0 4.59 20.01.49 20.01 13.28 0 9.18-9.08 13.84-20.58 13.84-6.86 0-13.43-1.62-16.79-3.74ZM785.81 18.57h13.5l-7.72 38.27h-13.51l7.72-38.27Zm.86-10.87c0-4.31 3.43-7.63 8.72-7.63 4.79 0 7.86 2.75 7.86 6.43 0 4.59-3.5 7.84-8.79 7.84-4.79 0-7.79-2.97-7.79-6.64ZM849.76 18.57l-6.29 31.21c-3.07 15.18-11.93 21.4-25.58 21.4-7.79 0-14.15-1.69-18.86-4.94l6.07-9.32c3.07 2.4 8.07 3.95 13.15 3.95 7 0 10.08-3.11 11.15-8.62l.29-1.27c-2.86 2.54-6.5 3.88-10.79 3.88-9.15 0-16.94-6.07-16.94-16.31 0-11.51 9.15-20.62 21.22-20.62 5.57 0 10.29 1.84 12.43 6.71l1.21-6.07h12.93Zm-17.72 16.38c0-3.74-2.64-6.28-7.22-6.28-5.43 0-9.22 3.74-9.22 9.25 0 3.74 2.71 6.21 7.29 6.21 5.36 0 9.15-3.67 9.15-9.18ZM896.71 30.92c0 1.48-.14 3.04-.5 4.73l-4.29 21.19h-13.58l4-19.91c.21-.92.29-1.77.29-2.54 0-3.32-1.71-5.08-5.36-5.08-4.64 0-7.86 2.75-9.08 8.62l-3.86 18.93h-13.58l7.72-38.27h12.86l-.79 3.95c3.43-3.18 7.86-4.59 12.15-4.59 8.29 0 14.01 4.45 14.01 12.99ZM128.17 82.81h16.03c12.06 0 19.26 6.32 19.26 16.18 0 13.88-9.91 23-24.7 23h-18.52l7.93-39.18Zm10.82 33.02c10.65 0 17.05-7 17.05-16.4 0-6.44-4.25-10.47-12.63-10.47h-9.12l-5.44 26.87h10.14ZM197.55 109.12h-24.02c.11 4.76 2.89 7.33 8.72 7.33 3.46 0 6.63-1.12 8.72-3.08l2.95 4.87c-3.17 2.8-7.76 4.14-12.4 4.14-9.12 0-14.9-5.21-14.9-13.15 0-10.13 7.31-17.46 17.45-17.46 8.38 0 13.93 4.93 13.93 13.1 0 1.51-.17 2.97-.45 4.25Zm-23.39-4.65h17.33c.06-4.59-3.06-7.11-7.76-7.11s-8.27 2.74-9.57 7.11ZM198.96 119.14l2.95-5.37c2.44 1.74 6.51 2.91 10.54 2.91 4.64 0 6.85-1.34 6.85-3.58 0-4.92-16.37-1.12-16.37-11.25 0-6.27 5.78-10.07 14.39-10.07 4.08 0 8.33.95 10.88 2.57l-2.61 5.37c-2.66-1.68-6-2.29-8.95-2.29-4.59 0-6.8 1.57-6.8 3.64 0 5.15 16.37 1.29 16.37 11.25 0 6.55-6 10.07-14.5 10.07-5.27 0-10.25-1.4-12.74-3.25ZM236.56 92.1h7.08l-6 29.89h-7.08l6-29.89Zm.91-8.84c0-2.52 1.93-4.48 4.81-4.48 2.55 0 4.25 1.68 4.25 3.75 0 2.74-1.93 4.65-4.81 4.65-2.55 0-4.25-1.79-4.25-3.92ZM283.01 92.1l-5.15 25.35c-2.27 11.14-8.44 15.78-18.69 15.78-5.83 0-10.71-1.4-14.16-4.09l3.68-5.26c2.32 2.01 6.4 3.36 10.93 3.36 6.63 0 9.8-2.91 10.93-8.62l.28-1.46c-2.55 2.18-5.89 3.47-9.91 3.47-7.87 0-13.54-4.7-13.54-12.37 0-9.29 7.19-16.51 17.16-16.51 4.53 0 8.67 1.57 10.71 5.26l.96-4.93h6.8Zm-10.14 12.43c0-4.2-2.89-6.83-7.93-6.83-6.06 0-10.42 4.25-10.42 10.19 0 4.2 3 6.83 7.99 6.83 6.06 0 10.37-4.25 10.37-10.19ZM319.76 101.84c0 1.12-.17 2.29-.4 3.58l-3.34 16.57h-7.08l3.29-16.4c.17-.84.23-1.62.23-2.29 0-3.47-1.93-5.43-6.06-5.43-5.15 0-8.72 2.8-9.91 8.62l-3.17 15.5h-7.08l6-29.89h6.74l-.68 3.3c2.78-2.46 6.4-3.64 10.42-3.64 6.68 0 11.04 3.53 11.04 10.07ZM338.95 117.96l3.12-5.71c3.29 2.63 8.1 4.25 12.91 4.25 5.78 0 9.52-2.07 9.52-5.54 0-7.28-19.99-3.47-19.99-16.06 0-7.72 7.02-12.65 17.28-12.65 5.1 0 9.91 1.18 13.25 3.3l-2.89 5.77c-2.95-1.96-6.8-3.02-10.76-3.02-6 0-9.57 2.41-9.57 5.82 0 7.33 19.99 3.75 19.99 15.73 0 7.78-7.08 12.71-17.5 12.71-6.23 0-12.23-1.96-15.35-4.59ZM410.09 92.1l-20.84 32.52c-4.19 6.55-7.48 8.62-12.74 8.62-3 0-6.23-1.01-7.93-2.63l3.51-5.09c1.25 1.12 2.89 1.9 4.98 1.9 2.38 0 4.02-1.12 5.95-4.08l.96-1.46-7.14-29.78h7.08l5.1 22.16 13.99-22.16h7.08ZM405.61 119.14l2.95-5.37c2.44 1.74 6.51 2.91 10.54 2.91 4.64 0 6.85-1.34 6.85-3.58 0-4.92-16.37-1.12-16.37-11.25 0-6.27 5.78-10.07 14.39-10.07 4.08 0 8.33.95 10.88 2.57l-2.61 5.37c-2.66-1.68-6-2.29-8.95-2.29-4.59 0-6.8 1.57-6.8 3.64 0 5.15 16.37 1.29 16.37 11.25 0 6.55-6 10.07-14.5 10.07-5.27 0-10.25-1.4-12.74-3.25ZM447.18 111.97c-.06.45-.11.9-.11 1.29 0 2.07 1.08 3.36 3.57 3.36 1.36 0 2.78-.39 3.96-1.18l1.25 5.15c-2.15 1.34-4.81 1.79-7.31 1.79-5.15 0-8.67-2.97-8.67-8 0-.73.06-1.51.23-2.35l2.89-14.1h-4.93l1.13-5.6h4.93l1.36-6.83h7.08l-1.42 6.83h8.16l-1.13 5.6h-8.16l-2.83 14.05ZM491.41 109.12h-24.02c.11 4.76 2.89 7.33 8.72 7.33 3.46 0 6.63-1.12 8.72-3.08l2.95 4.87c-3.17 2.8-7.76 4.14-12.4 4.14-9.12 0-14.9-5.21-14.9-13.15 0-10.13 7.31-17.46 17.45-17.46 8.38 0 13.93 4.93 13.93 13.1 0 1.51-.17 2.97-.45 4.25Zm-23.39-4.65h17.33c.06-4.59-3.06-7.11-7.76-7.11s-8.27 2.74-9.57 7.11ZM549.58 101.73c0 1.12-.11 2.35-.4 3.69l-3.34 16.57h-7.08l3.34-16.4c.17-.84.23-1.62.23-2.35 0-3.47-1.87-5.37-5.78-5.37-4.87 0-8.1 2.74-9.29 8.56l-3.17 15.56h-7.08l3.34-16.4c.17-.84.23-1.62.23-2.35 0-3.47-1.87-5.37-5.78-5.37-4.87 0-8.1 2.74-9.29 8.62l-3.17 15.5h-7.08l6-29.89H508l-.62 3.25c2.66-2.46 6.12-3.58 9.91-3.58 4.36 0 7.76 1.68 9.4 4.93 3.06-3.25 7.08-4.93 11.95-4.93 6.68 0 10.93 3.47 10.93 9.96ZM552.46 119.14l2.95-5.37c2.44 1.74 6.51 2.91 10.54 2.91 4.64 0 6.85-1.34 6.85-3.58 0-4.92-16.37-1.12-16.37-11.25 0-6.27 5.78-10.07 14.39-10.07 4.08 0 8.33.95 10.88 2.57l-2.61 5.37c-2.66-1.68-6-2.29-8.95-2.29-4.59 0-6.8 1.57-6.8 3.64 0 5.15 16.37 1.29 16.37 11.25 0 6.55-6 10.07-14.5 10.07-5.27 0-10.25-1.4-12.74-3.25ZM643.47 82.81l-7.93 39.18h-7.31l3.34-16.62h-20.5l-3.34 16.62h-7.36l7.93-39.18h7.36l-3.23 16.06h20.5l3.23-16.06h7.31ZM645.85 109.23c0-10.02 7.48-17.46 17.96-17.46 8.95 0 14.73 5.15 14.73 13.1 0 10.02-7.53 17.52-18.01 17.52-8.89 0-14.67-5.26-14.67-13.15Zm25.54-4.03c0-4.65-2.89-7.5-7.99-7.5-6 0-10.42 4.59-10.42 11.19 0 4.65 2.89 7.5 7.99 7.5 6 0 10.42-4.59 10.42-11.19ZM692.06 111.97c-.06.45-.11.9-.11 1.29 0 2.07 1.08 3.36 3.57 3.36 1.36 0 2.78-.39 3.96-1.18l1.25 5.15c-2.15 1.34-4.81 1.79-7.31 1.79-5.15 0-8.67-2.97-8.67-8 0-.73.06-1.51.23-2.35l2.89-14.1h-4.93l1.13-5.6H689l1.36-6.83h7.08l-1.42 6.83h8.16l-1.13 5.6h-8.16l-2.83 14.05ZM737.14 88.97H724l1.25-6.16h33.64l-1.3 6.16h-13.14l-6.63 33.02h-7.36l6.68-33.02ZM788.28 92.1l-6 29.89h-6.74l.62-3.08c-2.55 2.24-5.89 3.47-9.86 3.47-7.42 0-13.31-4.87-13.31-13.15 0-10.19 7.36-17.46 17.05-17.46 4.7 0 8.27 1.57 10.31 4.76l.85-4.42h7.08Zm-9.74 13.1c0-4.65-2.89-7.5-7.99-7.5-6 0-10.42 4.59-10.42 11.19 0 4.65 2.89 7.5 7.99 7.5 6 0 10.42-4.59 10.42-11.19ZM812.24 104.92l10.65 17.07h-8.21l-8.1-12.93-6.34 5.04-1.59 7.89h-7.08l8.38-41.53h7.08l-4.98 24.79 16.6-13.15h9.63l-16.03 12.82Z"/><path d="M856.92 109.12H832.9c.11 4.76 2.89 7.33 8.72 7.33 3.46 0 6.63-1.12 8.72-3.08l2.95 4.87c-3.17 2.8-7.76 4.14-12.4 4.14-9.12 0-14.9-5.21-14.9-13.15 0-10.13 7.31-17.46 17.45-17.46 8.38 0 13.93 4.93 13.93 13.1 0 1.51-.17 2.97-.45 4.25Zm-23.39-4.65h17.33c.06-4.59-3.06-7.11-7.76-7.11s-8.27 2.74-9.57 7.11ZM858.33 119.14l2.95-5.37c2.44 1.74 6.51 2.91 10.54 2.91 4.64 0 6.85-1.34 6.85-3.58 0-4.92-16.37-1.12-16.37-11.25 0-6.27 5.78-10.07 14.39-10.07 4.08 0 8.33.95 10.88 2.57l-2.61 5.37c-2.66-1.68-6-2.29-8.95-2.29-4.59 0-6.8 1.57-6.8 3.64 0 5.15 16.37 1.29 16.37 11.25 0 6.55-6 10.07-14.5 10.07-5.27 0-10.25-1.4-12.74-3.25Z"/></svg>