<svg xmlns="http://www.w3.org/2000/svg" role="presentation" viewBox="0 0 784.03 144.72" fill="currentColor" width="6em">
	<path d="m119.8,44.52c-3.62-8.51-8.68-15.94-15.18-22.31-6.5-6.36-14.1-11.32-22.81-14.87-8.71-3.55-18.16-5.33-28.34-5.33H0v140.7h53.87c10.05,0,19.43-1.77,28.14-5.33,8.71-3.55,16.28-8.51,22.71-14.87,6.43-6.36,11.46-13.83,15.07-22.41,3.62-8.57,5.43-17.82,5.43-27.74s-1.81-19.33-5.43-27.84Zm-24.42,53.47c-4.09,7.44-9.78,13.23-17.08,17.39-7.31,4.15-15.78,6.23-25.43,6.23h-29.75V23.11h29.75c9.51,0,17.92,2.08,25.23,6.23,7.3,4.15,13.03,9.92,17.19,17.29,4.15,7.37,6.23,15.88,6.23,25.53s-2.04,18.39-6.13,25.83Z" />
	<path style="fill: var(--heat, currentColor);" d="m160.9,4.52c-3.01-3.02-6.53-4.52-10.55-4.52s-7.71,1.51-10.65,4.52c-2.95,3.02-4.42,6.67-4.42,10.95,0,4.02,1.31,7.34,3.92,9.95,1.87,1.87,3.86,3.06,5.98,3.59l-11.91,22.24,12.26,6.63,14.87-27.34c1.88-3.62,3.18-6.6,3.92-8.94.73-2.34,1.11-4.39,1.11-6.13,0-4.29-1.51-7.94-4.52-10.95Z" />
	<path class="cls-1" d="m239.37,142.71h24.93L206.81,2.01h-16.08l-57.89,140.7h24.52l10.82-27.13h60.47l10.72,27.13Zm-63.18-47.23l22.36-56.1,22.16,56.1h-44.52Z" />
	<polygon points="396.95 2.01 343.69 89.69 290.42 2.01 274.34 2.01 274.34 142.71 297.46 142.71 297.46 52.61 335.65 115.37 351.73 115.37 389.92 52.61 389.92 142.71 413.03 142.71 413.03 2.01 396.95 2.01" />
	<path d="m529.61,142.71h24.92L497.05,2.01h-16.08l-57.89,140.7h24.52l10.82-27.13h60.47l10.72,27.13Zm-63.18-47.23l22.36-56.09,22.16,56.09h-44.52Z" />
	<polygon points="642.9 2.01 528.13 2.01 528.13 23.11 573.96 23.11 573.96 142.71 597.07 142.71 597.07 23.11 642.9 23.11 642.9 2.01" />
	<path d="m712.67,144.72c-10.05,0-19.43-1.88-28.14-5.63-8.71-3.75-16.35-8.94-22.91-15.58-6.57-6.63-11.69-14.34-15.38-23.12-3.69-8.77-5.53-18.19-5.53-28.24s1.84-19.43,5.53-28.14c3.68-8.71,8.78-16.38,15.28-23.01,6.5-6.63,14.07-11.79,22.71-15.48,8.64-3.68,17.99-5.53,28.04-5.53s19.4,1.84,28.04,5.53c8.64,3.69,16.25,8.84,22.81,15.48,6.56,6.63,11.69,14.34,15.38,23.12,3.68,8.78,5.53,18.19,5.53,28.24s-1.84,19.47-5.53,28.24c-3.69,8.78-8.78,16.45-15.28,23.01-6.5,6.57-14.07,11.73-22.71,15.48-8.64,3.75-17.92,5.63-27.84,5.63Zm-.4-22.11c9.51,0,17.85-2.14,25.02-6.43,7.17-4.29,12.79-10.22,16.88-17.79,4.09-7.57,6.13-16.31,6.13-26.23,0-7.37-1.17-14.1-3.52-20.2-2.35-6.1-5.66-11.39-9.95-15.88-4.29-4.49-9.35-7.94-15.18-10.35s-12.29-3.62-19.4-3.62c-9.38,0-17.66,2.11-24.82,6.33-7.17,4.22-12.8,10.08-16.88,17.59-4.09,7.51-6.13,16.22-6.13,26.13,0,7.37,1.17,14.17,3.52,20.4,2.34,6.23,5.63,11.56,9.85,15.98,4.22,4.42,9.28,7.87,15.18,10.35,5.9,2.48,12.33,3.72,19.3,3.72Z" />
</svg>
